<svg xmlns="http://www.w3.org/2000/svg" style="height: 0; width: 0; position: absolute; visibility: hidden;">
    <!--CURVED_LINE-->
    <symbol id="curved_line_svg" viewBox="0 0 199 157">
        <path fill-rule="evenodd" fill-opacity="0.7" clip-rule="evenodd"
              d="M197.665 1.53653C197.66 1.20278 197.658 0.871811 197.658 0.543701L195.658 0.543747C195.658 0.881835 195.66 1.22206 195.665 1.56425L197.665 1.53653ZM197.799 5.55222C197.767 4.87319 197.738 4.20259 197.715 3.5408L195.716 3.6101C195.739 4.28254 195.769 4.96191 195.801 5.64679L197.799 5.55222ZM197.945 8.38644C197.93 8.11282 197.915 7.84035 197.901 7.56964L195.904 7.6755C195.918 7.94853 195.933 8.22168 195.948 8.49542C195.969 8.89436 195.99 9.29456 196.011 9.69753L198.009 9.59276C197.988 9.18939 197.966 8.78667 197.945 8.38644ZM198.193 13.6565C198.169 12.974 198.141 12.2954 198.11 11.6216L196.112 11.7141C196.143 12.382 196.171 13.0528 196.194 13.726L198.193 13.6565ZM198.264 17.7436C198.266 17.0588 198.26 16.3764 198.248 15.6972L196.248 15.7337C196.261 16.4003 196.266 17.0682 196.264 17.737L198.264 17.7436ZM198.139 21.8488C198.181 21.1628 198.211 20.4778 198.231 19.7946L196.232 19.7352C196.212 20.3991 196.183 21.0631 196.142 21.7265L198.139 21.8488ZM197.733 25.9553C197.829 25.2715 197.909 24.5873 197.976 23.9036L195.985 23.7086C195.921 24.3666 195.844 25.0233 195.752 25.678L197.733 25.9553ZM196.965 30.0288C197.128 29.3538 197.272 28.677 197.399 27.9992L195.433 27.6303C195.312 28.2762 195.175 28.9196 195.021 29.5599L196.965 30.0288ZM195.763 34.0128C196.004 33.357 196.223 32.698 196.422 32.0364L194.507 31.4602C194.319 32.0851 194.112 32.7065 193.886 33.3239L195.763 34.0128ZM194.083 37.8312C194.407 37.2078 194.707 36.5798 194.984 35.9479L193.153 35.1431C192.893 35.7365 192.611 36.3256 192.308 36.91L194.083 37.8312ZM191.922 41.4033C192.326 40.8251 192.705 40.2414 193.061 39.6526L191.35 38.6171C191.016 39.1689 190.661 39.7161 190.282 40.2582L191.922 41.4033ZM189.317 44.6678C189.792 44.1434 190.243 43.6128 190.671 43.0764L189.108 41.8284C188.706 42.3322 188.282 42.8313 187.834 43.3251L189.317 44.6678ZM186.35 47.5802C186.878 47.117 187.385 46.6476 187.869 46.1725L186.469 44.7441C186.011 45.193 185.533 45.6371 185.032 46.0761L186.35 47.5802ZM183.095 50.1486C183.669 49.7396 184.223 49.3246 184.757 48.9039L183.519 47.3331C183.011 47.7333 182.483 48.1289 181.935 48.5194L183.095 50.1486ZM179.628 52.3922C180.228 52.0391 180.809 51.6805 181.372 51.3167L180.287 49.6367C179.747 49.9853 179.189 50.3294 178.613 50.6689L179.628 52.3922ZM175.987 54.3551C176.619 54.0434 177.233 53.7267 177.83 53.4049L176.882 51.6441C176.305 51.9544 175.712 52.2603 175.102 52.5618L175.987 54.3551ZM172.249 56.0548C172.897 55.7836 173.529 55.5077 174.146 55.2273L173.318 53.4065C172.72 53.6785 172.106 53.9463 171.477 54.2099L172.249 56.0548ZM168.432 57.5325C169.088 57.2978 169.73 57.059 170.358 56.816L169.636 54.9507C169.024 55.1874 168.398 55.4204 167.758 55.6494L168.432 57.5325ZM164.55 58.8212C165.212 58.6176 165.861 58.4102 166.498 58.199L165.868 56.3007C165.245 56.5072 164.61 56.7102 163.962 56.9096L164.55 58.8212ZM161.581 59.685C161.92 59.5918 162.256 59.4976 162.589 59.4026L162.039 57.4794C161.713 57.5727 161.383 57.6651 161.051 57.7566C160.733 57.8438 160.415 57.9307 160.095 58.0172L160.618 59.9477C160.94 59.8605 161.261 59.773 161.581 59.685ZM156.709 60.9742C157.368 60.8063 158.022 60.6369 158.673 60.4661L158.165 58.5316C157.519 58.7013 156.869 58.8694 156.215 59.0362L156.709 60.9742ZM152.802 61.9437C153.46 61.7847 154.115 61.6244 154.766 61.4629L154.284 59.5217C153.637 59.6822 152.986 59.8415 152.332 59.9996L152.802 61.9437ZM148.885 62.8674C149.541 62.7163 150.194 62.5641 150.844 62.4108L150.386 60.4642C149.739 60.6166 149.089 60.768 148.436 60.9184L148.885 62.8674ZM144.955 63.7529C145.61 63.6085 146.262 63.4631 146.911 63.3169L146.472 61.3658C145.825 61.5114 145.176 61.6561 144.524 61.7999L144.955 63.7529ZM141.016 64.6059C141.674 64.4659 142.33 64.3252 142.984 64.1837L142.561 62.2289C141.91 62.3699 141.256 62.5101 140.6 62.6496L141.016 64.6059ZM137.071 65.4306C137.733 65.2945 138.392 65.1577 139.05 65.0203L138.64 63.0626C137.985 63.1996 137.327 63.3359 136.668 63.4717L137.071 65.4306ZM133.133 66.2298C133.792 66.0978 134.45 65.9652 135.106 65.8321L134.708 63.8721C134.054 64.0048 133.398 64.137 132.74 64.2688L133.133 66.2298ZM129.187 67.0111C129.845 66.8822 130.501 66.753 131.156 66.6234L130.768 64.6615C130.114 64.7908 129.459 64.9198 128.803 65.0484L129.187 67.0111ZM125.236 67.778C125.895 67.6511 126.553 67.5239 127.21 67.3965L126.829 65.4331C126.174 65.5604 125.516 65.6873 124.858 65.814L125.236 67.778ZM121.285 68.5336C121.945 68.4081 122.605 68.2823 123.263 68.1564L122.888 66.192C122.23 66.3178 121.571 66.4434 120.911 66.5688L121.285 68.5336ZM118.634 69.0359C118.86 68.9931 119.086 68.9504 119.312 68.9077L118.94 66.9425C118.283 67.0669 117.625 67.1912 116.966 67.3154L117.337 69.2807C117.77 69.1991 118.202 69.1175 118.634 69.0359ZM113.387 70.0244L115.36 69.6533L114.99 67.6878L113.017 68.0588L113.387 70.0244ZM109.436 70.7674L111.411 70.3957L111.042 68.4302L109.066 68.8019L109.436 70.7674ZM105.488 71.5127C106.146 71.388 106.804 71.2636 107.462 71.1394L107.091 69.1741C106.433 69.2984 105.775 69.4229 105.116 69.5476L105.488 71.5127ZM101.542 72.264C102.199 72.1382 102.857 72.0127 103.515 71.8874L103.141 69.9227C102.482 70.048 101.824 70.1737 101.166 70.2997L101.542 72.264ZM97.5976 73.0245C98.2548 72.8968 98.9126 72.7695 99.5707 72.6426L99.1921 70.6788C98.5331 70.8059 97.8743 70.9333 97.2161 71.0613L97.5976 73.0245ZM93.6592 73.7971C94.3146 73.6673 94.9706 73.538 95.6274 73.4092L95.2424 71.4466C94.5845 71.5756 93.9271 71.7052 93.2705 71.8353L93.6592 73.7971ZM89.7222 74.5863C90.3765 74.4536 91.0318 74.3214 91.688 74.1899L91.295 72.2289C90.6373 72.3607 89.9804 72.4932 89.3244 72.6263L89.7222 74.5863ZM85.7888 75.3954C86.4432 75.2589 87.0989 75.1231 87.7558 74.988L87.3529 73.029C86.6942 73.1644 86.0367 73.3006 85.3803 73.4376L85.7888 75.3954ZM81.8641 76.2274C82.5177 76.0866 83.1728 75.9466 83.8294 75.8075L83.4147 73.8509C82.756 73.9905 82.0987 74.131 81.4428 74.2723L81.8641 76.2274ZM77.9511 77.0859C78.6002 76.9408 79.2511 76.7968 79.9037 76.6536L79.4752 74.7001C78.8201 74.8438 78.1667 74.9884 77.5149 75.134L77.9511 77.0859ZM74.0373 77.9782C74.6857 77.8273 75.336 77.6776 75.9884 77.5289L75.5439 75.5789C74.8887 75.7282 74.2353 75.8787 73.584 76.0303L74.0373 77.9782ZM70.134 78.9071C70.7825 78.7492 71.4334 78.5926 72.0865 78.4372L71.6236 76.4915C70.9672 76.6477 70.3129 76.8051 69.6609 76.9638L70.134 78.9071ZM66.2462 79.8767C66.8934 79.7112 67.5433 79.5472 68.1958 79.3845L67.712 77.4439C67.0558 77.6075 66.402 77.7725 65.7508 77.939L66.2462 79.8767ZM62.3772 80.8923C63.0178 80.7196 63.6614 80.5484 64.308 80.3787L63.8003 78.4442C63.1495 78.615 62.5015 78.7873 61.8565 78.9613L62.3772 80.8923ZM58.5199 81.9628C59.1561 81.781 59.7957 81.601 60.4386 81.4226L59.9039 79.4954C59.2562 79.6751 58.6116 79.8565 57.9704 80.0398L58.5199 81.9628ZM54.6752 83.0961C55.31 82.903 55.9488 82.7118 56.5913 82.5224L56.0259 80.604C55.378 80.7949 54.7336 80.9878 54.093 81.1827L54.6752 83.0961ZM50.8572 84.2973C51.4903 84.0912 52.1278 83.8873 52.7695 83.6855L52.1696 81.7776C51.5216 81.9814 50.8777 82.1873 50.2381 82.3955L50.8572 84.2973ZM47.0708 85.5753C47.6994 85.3552 48.3331 85.1375 48.9716 84.9221L48.3323 83.027C47.6868 83.2448 47.0459 83.4649 46.4098 83.6877L47.0708 85.5753ZM43.3214 86.9404C43.9403 86.706 44.5647 86.4742 45.1945 86.245L44.5106 84.3656C43.8728 84.5977 43.2402 84.8325 42.6129 85.0701L43.3214 86.9404ZM39.6159 88.4046C40.2238 88.1539 40.8379 87.9061 41.458 87.6611L40.7233 85.801C40.0941 86.0495 39.4707 86.301 38.8533 86.5557L39.6159 88.4046ZM35.9628 89.9819C36.5585 89.7124 37.1611 89.4463 37.7704 89.1832L36.9778 87.347C36.3581 87.6145 35.745 87.8853 35.1385 88.1597L35.9628 89.9819ZM32.3677 91.6915C32.9514 91.3994 33.543 91.111 34.1423 90.8261L33.2835 89.0198C32.6725 89.3103 32.0688 89.6047 31.4727 89.9029L32.3677 91.6915ZM28.8536 93.549C29.4227 93.2309 30.0007 92.9169 30.5874 92.6068L29.6531 90.8385C29.0528 91.1557 28.4609 91.4772 27.8777 91.8032L28.8536 93.549ZM25.4448 95.5733C25.9946 95.2259 26.5545 94.8831 27.1245 94.5448L26.1036 92.825C25.5182 93.1725 24.9424 93.5249 24.3765 93.8825L25.4448 95.5733ZM22.17 97.7866C22.6946 97.4065 23.2308 97.0316 23.7784 96.6617L22.6589 95.0044C22.0937 95.3862 21.5396 95.7736 20.9966 96.1669L22.17 97.7866ZM19.0644 100.214C19.5574 99.7969 20.0635 99.3858 20.5825 98.9804L19.3513 97.4042C18.8126 97.8251 18.2863 98.2525 17.773 98.6865L19.0644 100.214ZM16.1726 102.881C16.6269 102.422 17.0963 101.969 17.5803 101.523L16.2248 100.053C15.719 100.519 15.2276 100.993 14.7511 101.474L16.1726 102.881ZM14.1888 105.04C14.3971 104.795 14.6095 104.552 14.826 104.31L13.3363 102.976C13.1084 103.23 12.8846 103.486 12.6649 103.745C12.4441 104.005 12.2269 104.264 12.0133 104.524L13.5575 105.795C13.7644 105.543 13.9748 105.292 14.1888 105.04ZM11.1932 108.867C11.5647 108.349 11.9503 107.83 12.3508 107.31L10.7662 106.09C10.352 106.628 9.95284 107.165 9.56812 107.701L11.1932 108.867ZM9.04298 112.102C9.3761 111.559 9.72403 111.014 10.0874 110.467L8.42191 109.36C8.045 109.927 7.68382 110.493 7.33781 111.057L9.04298 112.102ZM7.14838 115.477C7.43768 114.911 7.74214 114.343 8.06242 113.772L6.31863 112.793C5.9855 113.386 5.66866 113.977 5.3674 114.567L7.14838 115.477ZM5.53065 118.987C5.77277 118.399 6.03014 117.809 6.30356 117.216L4.4873 116.378C4.20232 116.997 3.93396 117.612 3.68141 118.225L5.53065 118.987ZM4.20984 122.619C4.40187 122.012 4.60898 121.402 4.83208 120.789L2.95256 120.105C2.71974 120.745 2.50359 121.382 2.30313 122.015L4.20984 122.619ZM3.19952 126.351C3.33997 125.73 3.49489 125.104 3.66537 124.474L1.73485 123.951C1.5569 124.609 1.39523 125.262 1.24872 125.91L3.19952 126.351ZM2.50296 130.158C2.59218 129.527 2.69487 128.889 2.81229 128.247L0.844894 127.887C0.722488 128.557 0.615509 129.221 0.522614 129.879L2.50296 130.158ZM2.1109 134.014C2.15143 133.377 2.20398 132.732 2.26996 132.082L0.280167 131.88C0.211563 132.556 0.156998 133.226 0.114929 133.887L2.1109 134.014ZM2.00093 137.894C1.9976 137.255 2.00426 136.607 2.02257 135.952L0.0233459 135.896C0.00437927 136.575 -0.00248718 137.244 0.000961304 137.904L2.00093 137.894ZM2.13766 141.785C2.09744 141.145 2.06459 140.495 2.04108 139.836L0.0423584 139.907C0.0665436 140.586 0.100342 141.254 0.141617 141.91L2.13766 141.785ZM2.47108 145.678C2.40421 145.043 2.34097 144.395 2.28383 143.733L0.29126 143.905C0.34964 144.581 0.414108 145.242 0.482071 145.888L2.47108 145.678ZM2.92845 149.587C2.85004 148.952 2.76968 148.301 2.69048 147.632L0.70433 147.866C0.78421 148.542 0.865173 149.198 0.943527 149.832L2.92845 149.587ZM3.38237 153.538C3.32198 152.903 3.24869 152.241 3.16811 151.556L1.18182 151.79C1.26147 152.467 1.3329 153.112 1.39134 153.727L3.38237 153.538ZM3.5526 156.589C3.5526 156.255 3.54417 155.911 3.52876 155.559L1.53067 155.646C1.545 155.974 1.5526 156.288 1.5526 156.589H3.5526Z"/>
    </symbol>
    <!--LOGO-->
    <symbol id="logo_svg" viewBox="0 0 169 33">
        <path fill-rule="evenodd" clip-rule="evenodd"
              d="M24.8393 12.4665H28.2444C28.2375 12.3714 28.2149 12.2781 28.1774 12.19V9.75037C28.1861 9.65873 28.1679 9.56658 28.125 9.48456C28.082 9.40255 28.0161 9.334 27.9348 9.28684C27.5165 9.00222 27.0982 8.71354 26.6799 8.42485C26.2616 8.13616 25.8432 7.84747 25.4249 7.56284L14.4734 0.0813208C14.4514 0.0742035 14.4262 0.0577421 14.4014 0.0414779C14.3694 0.0205762 14.3379 0 14.3144 0C14.2314 0.0801236 14.1558 0.167203 14.0885 0.260227C14.0564 0.223342 14.0274 0.191406 14.0003 0.161658C13.9498 0.106143 13.9062 0.0582425 13.8626 0L13.6618 0.130113L5.74729 5.52169C5.00769 6.02264 4.26808 6.52619 3.52848 7.02974C2.41912 7.78504 1.30976 8.54033 0.200409 9.28684C0.135569 9.32603 0.0827337 9.38141 0.0474159 9.4472C0.012098 9.513 -0.00440887 9.58681 -0.000382883 9.66092V12.1981V12.4177H3.42981C3.44214 12.345 3.44214 12.2708 3.42981 12.1981V11.3361C3.42468 11.2933 3.43218 11.2499 3.45143 11.211C3.47069 11.1721 3.50091 11.1394 3.53858 11.1166C3.58041 11.1003 3.67244 11.0352 3.67244 11.0352C4.85248 10.2211 6.03916 9.41335 7.22829 8.60396C7.92765 8.12794 8.62787 7.65133 9.32808 7.1725C9.8731 6.81004 10.4072 6.44757 10.9413 6.08511C11.3418 5.81327 11.7424 5.54143 12.1475 5.26959L12.3985 5.13948V14.898H15.8287V5.08255C15.9148 5.14654 16.0042 5.20625 16.0964 5.26146L22.0951 9.3275C22.6724 9.72906 23.2611 10.1269 23.8406 10.5185C24.1178 10.7058 24.3929 10.8917 24.6636 11.0759C24.7226 11.1028 24.7714 11.1472 24.803 11.2027C24.8345 11.2582 24.8472 11.322 24.8393 11.3849V12.2469V12.4665ZM3.43013 13.605V13.3203C2.30955 13.2626 1.18642 13.2708 0.0668582 13.3447V23.2415C0.0597341 23.3361 0.0793506 23.4308 0.123587 23.5154C0.167824 23.5999 0.234998 23.6711 0.317848 23.7213L3.89864 26.1609L13.7626 32.9105L13.9466 33.0406C14.0287 32.9655 14.1043 32.8839 14.1725 32.7967C14.206 32.8414 14.2457 32.88 14.2854 32.9187C14.3252 32.9573 14.3649 32.9959 14.3984 33.0406L14.6243 32.8861C16.7326 31.4456 18.8519 30.005 20.9711 28.5645C22.5606 27.4841 24.15 26.4037 25.7348 25.3233C25.9003 25.2069 26.065 25.0906 26.2293 24.9745C26.8459 24.539 27.4564 24.1078 28.0774 23.6969C28.1428 23.6584 28.1962 23.6031 28.2316 23.5371C28.267 23.4712 28.2831 23.397 28.2781 23.3228V13.5643V13.3041H26.0025C25.6264 13.2799 25.2491 13.2799 24.873 13.3041V21.5012C24.873 21.7174 24.8905 21.7933 24.8629 21.8452C24.8365 21.8948 24.7689 21.9225 24.6053 22.0298L18.6067 26.0958C18.1883 26.3805 17.77 26.661 17.3517 26.9416C16.9334 27.2221 16.5151 27.5027 16.0968 27.7873C16.0298 27.893 15.988 27.893 15.8541 27.893V15.9307C15.6031 15.8657 12.608 15.8657 12.4239 15.9307V27.9174C12.3315 27.8714 12.2421 27.8198 12.1562 27.7629C10.3318 26.5424 8.52106 25.3085 6.70647 24.072C5.6919 23.3806 4.67611 22.6884 3.65602 21.9973C3.58254 21.9553 3.5225 21.8942 3.48262 21.821C3.44273 21.7478 3.42456 21.6652 3.43013 21.5825V13.605Z"
              fill="white"/>
        <path d="M39.1287 19.1917C39.9653 15.9389 40.8019 12.7511 41.7222 9.50641H44.8596C45.1022 9.50641 45.1022 9.50641 45.1524 9.72598C45.6879 11.8322 46.2066 13.9384 46.7504 16.0609C47.0181 17.0936 47.2691 18.1427 47.5368 19.1755C47.5605 19.2434 47.5913 19.3088 47.6289 19.3706C47.791 18.8366 47.9195 18.2934 48.0137 17.7442C48.1476 17.1912 48.2647 16.6464 48.3735 16.1178C48.4822 15.5892 48.6245 15.02 48.7332 14.4914C48.842 13.9628 48.9842 13.3935 49.093 12.865C49.2017 12.3364 49.344 11.7671 49.4527 11.1979C49.5615 10.6286 49.7037 10.1001 49.8125 9.57147H52.657C52.657 9.67718 52.657 9.79103 52.5901 9.87235L49.2436 23.4855C49.2463 23.5206 49.2463 23.556 49.2436 23.5912C49.2436 23.6806 49.1766 23.705 49.1097 23.705H46.2317C46.2317 23.64 46.2317 23.5505 46.1648 23.4855L43.5043 13.3041C43.5043 13.2309 43.5043 13.1252 43.362 13.0845C42.4166 16.6057 41.4963 20.1188 40.5509 23.6562H40.2999H37.6478C37.4052 23.6562 37.4052 23.6562 37.3299 23.4204C36.8363 21.3793 36.3678 19.3544 35.8658 17.2807C35.3638 15.207 34.8284 12.9463 34.3097 10.775C34.226 10.4253 34.134 10.0757 34.067 9.72598C34.0532 9.65341 34.0532 9.57898 34.067 9.50641H36.7024C36.9534 9.50641 36.9534 9.50641 36.9952 9.72598C37.2462 10.8889 37.514 12.0518 37.7649 13.1902C38.1916 15.1175 38.6016 17.0692 39.0534 18.9966C39.0611 19.0532 39.0611 19.1106 39.0534 19.1673C39.0868 19.1917 39.1119 19.1917 39.1287 19.1917Z"
              fill="white"/>
        <path d="M67.5078 9.50644H73.7324C74.4136 9.49313 75.0945 9.54488 75.7654 9.66095C76.4608 9.77714 77.1053 10.0909 77.6175 10.5627C78.1297 11.0345 78.4867 11.6432 78.6434 12.312C78.8175 13.0229 78.7483 13.7696 78.4464 14.4388C78.1444 15.108 77.6261 15.6632 76.9701 16.0202L76.7693 16.126C76.841 16.1652 76.9083 16.2115 76.9701 16.2642C77.5283 16.4521 78.0368 16.7575 78.4593 17.1587C79.0364 17.756 79.3722 18.5357 79.4047 19.3544C79.4379 20.2779 79.1716 21.1883 78.6434 21.9567C78.3589 22.3707 77.9888 22.7227 77.5567 22.9901C77.1246 23.2575 76.6399 23.4345 76.1335 23.5099C75.7989 23.5099 75.4391 23.5749 75.0961 23.5993C72.6615 23.6807 70.2269 23.64 67.8174 23.64H67.6835C67.6653 23.6428 67.6466 23.6413 67.6291 23.6358C67.6115 23.6302 67.5956 23.6207 67.5825 23.608C67.5695 23.5953 67.5597 23.5798 67.554 23.5628C67.5483 23.5457 67.5468 23.5276 67.5496 23.5099V9.75853C67.5289 9.6757 67.5149 9.5914 67.5078 9.50644ZM72.5276 21.3224H73.5818C74.0085 21.3224 74.4184 21.3224 74.8451 21.2573C75.205 21.2368 75.5485 21.1038 75.8244 20.8781C76.1003 20.6524 76.2938 20.3462 76.3761 20.005C76.4232 19.7884 76.4457 19.5675 76.4431 19.3463C76.4484 18.9177 76.2908 18.5023 76.0006 18.1797C75.7104 17.8571 75.3078 17.6499 74.8702 17.5979C74.3419 17.5148 73.8073 17.4767 73.2722 17.484H70.4611C70.3105 17.484 70.2854 17.484 70.2854 17.6629V21.2085C70.2826 21.2262 70.2841 21.2444 70.2898 21.2614C70.2955 21.2785 70.3053 21.294 70.3183 21.3066C70.3314 21.3193 70.3473 21.3288 70.3649 21.3344C70.3824 21.34 70.4011 21.3414 70.4193 21.3386H70.5783C71.2559 21.3224 71.8834 21.3224 72.5192 21.3224H72.5276ZM72.4607 11.8078C71.8499 11.8078 71.2392 11.8078 70.6285 11.8078H70.4695C70.4513 11.805 70.4326 11.8065 70.4151 11.812C70.3975 11.8176 70.3816 11.8271 70.3685 11.8398C70.3555 11.8525 70.3457 11.868 70.34 11.885C70.3343 11.9021 70.3328 11.9202 70.3356 11.9379V15.0037C70.3356 15.1176 70.3858 15.1582 70.4946 15.142H73.4228C73.8013 15.1455 74.1794 15.1156 74.5523 15.0525C74.8767 15.015 75.1812 14.8807 75.4239 14.6681C75.6666 14.4554 75.8356 14.175 75.9076 13.8652C75.9662 13.6273 75.9662 13.3794 75.9076 13.1415C75.8833 12.8838 75.7838 12.6382 75.6208 12.4336C75.4577 12.229 75.238 12.074 74.9873 11.9867C74.7787 11.9074 74.5584 11.8607 74.3347 11.8485C73.7073 11.8322 73.0798 11.8322 72.4523 11.8078H72.4607Z"
              fill="white"/>
        <path d="M94.0459 9.50641H100.538C101.247 9.51278 101.955 9.57259 102.655 9.68531C103.268 9.77652 103.843 10.0317 104.316 10.4223C104.789 10.8129 105.141 11.3235 105.332 11.8972C105.706 12.8543 105.736 13.9063 105.416 14.8817C105.255 15.3701 104.982 15.8168 104.618 16.1886C104.255 16.5603 103.81 16.8474 103.316 17.0286C102.944 17.169 102.561 17.2778 102.17 17.3539L101.877 17.4189C101.934 17.4752 102.002 17.5195 102.078 17.549C102.846 18.0019 103.501 18.6159 103.993 19.3462L105.617 21.8265C105.951 22.347 106.294 22.9 106.629 23.4529C106.679 23.518 106.696 23.583 106.763 23.6725C106.679 23.6725 106.604 23.6725 106.537 23.6725H103.609C103.541 23.6783 103.473 23.6644 103.413 23.6325C103.354 23.6006 103.305 23.5523 103.274 23.4936C102.437 22.3144 101.668 21.1109 100.881 19.9236C100.613 19.5333 100.321 19.1592 100.045 18.7607C99.953 18.6349 99.8493 18.5178 99.735 18.411C99.333 18.0147 98.7926 17.7797 98.2207 17.7523C97.8359 17.7523 97.4761 17.7523 97.0913 17.7523H96.8737V23.6644C96.6313 23.6765 96.3883 23.6765 96.1459 23.6644H94.071C94.0208 23.4936 93.9957 9.7585 94.0459 9.50641ZM96.8821 15.516H97.1331H99.5593C100.161 15.5257 100.762 15.4904 101.358 15.4103C101.654 15.3652 101.932 15.2409 102.159 15.0514C102.387 14.8618 102.555 14.6144 102.647 14.3369C102.732 14.052 102.763 13.7544 102.739 13.4586C102.717 13.1215 102.587 12.7995 102.368 12.5372C102.149 12.2749 101.852 12.0853 101.517 11.9948C101.244 11.9251 100.962 11.8949 100.68 11.9054C99.484 11.9054 98.2876 11.9054 97.1164 11.9054C97.0745 11.9054 97.0076 11.9054 96.9407 11.9054C96.8821 13.0845 96.8821 14.2881 96.8821 15.516Z"
              fill="white"/>
        <path d="M126.524 23.64C126.432 23.64 126.365 23.64 126.298 23.64H124.022C124.008 23.6412 123.993 23.6393 123.979 23.6344C123.965 23.6296 123.953 23.6218 123.943 23.6117C123.932 23.6017 123.924 23.5895 123.919 23.5761C123.914 23.5627 123.912 23.5484 123.914 23.5342V9.75848C123.906 9.67188 123.906 9.58486 123.914 9.49826C124.006 9.49826 124.047 9.49826 124.123 9.49826H126.465C126.527 9.49637 126.588 9.51238 126.64 9.54425C126.692 9.57612 126.733 9.6224 126.758 9.67716L129.143 13.5806L132.322 18.7526C132.379 18.8197 132.432 18.8903 132.481 18.964C132.492 18.9056 132.509 18.8484 132.531 18.7932V9.75848C132.523 9.67192 132.523 9.58482 132.531 9.49826H135.099C135.15 9.65277 135.15 23.3228 135.099 23.6318H134.882H132.514C132.443 23.6392 132.371 23.6242 132.31 23.5891C132.248 23.554 132.199 23.5005 132.171 23.4367C130.749 21.1109 129.31 18.8095 127.871 16.5081C127.486 15.8738 127.076 15.2395 126.691 14.6052C126.64 14.5357 126.596 14.4623 126.557 14.3856C126.54 14.4418 126.526 14.4988 126.515 14.5564V23.3553C126.505 23.4501 126.508 23.5459 126.524 23.64Z"
              fill="white"/>
        <path d="M121.588 16.6057C121.608 17.687 121.432 18.7632 121.069 19.7854C120.774 20.6688 120.27 21.4726 119.597 22.1322C118.924 22.7918 118.102 23.2887 117.195 23.5831C116.387 23.8469 115.537 23.9654 114.685 23.9327C113.86 23.9478 113.037 23.8296 112.251 23.5831C111.321 23.2918 110.476 22.7873 109.789 22.1122C109.102 21.4371 108.592 20.6111 108.302 19.704C108.074 19.0293 107.931 18.3303 107.875 17.6222C107.833 16.9587 107.833 16.2934 107.875 15.6299C107.931 14.4703 108.272 13.3407 108.871 12.3364C109.341 11.5155 110.009 10.818 110.818 10.3037C111.627 9.78952 112.552 9.47403 113.514 9.38443C114.207 9.29094 114.909 9.27457 115.606 9.33564C116.884 9.42153 118.105 9.88497 119.106 10.6639C120.106 11.4429 120.838 12.5002 121.203 13.6944C121.407 14.345 121.533 15.0162 121.579 15.6949C121.562 15.9714 121.588 16.3048 121.588 16.6057ZM118.684 16.5651C118.684 16.256 118.684 15.9552 118.634 15.6705C118.6 15.0982 118.47 14.5352 118.249 14.0035C118.07 13.5164 117.781 13.0746 117.403 12.7102C117.025 12.3458 116.568 12.068 116.066 11.8972C115.479 11.7062 114.855 11.6478 114.242 11.7265C113.788 11.7563 113.345 11.8738 112.938 12.0721C112.532 12.2704 112.17 12.5455 111.874 12.8812C111.459 13.3523 111.159 13.9082 110.996 14.5076C110.792 15.2855 110.707 16.0884 110.745 16.8903C110.757 17.5833 110.872 18.2709 111.088 18.9315C111.245 19.4187 111.501 19.8701 111.842 20.2586C112.183 20.6471 112.601 20.9646 113.071 21.1922C113.645 21.4558 114.277 21.576 114.911 21.5419C115.517 21.5253 116.107 21.3572 116.626 21.054C117.431 20.5676 118.026 19.8131 118.3 18.9315C118.524 18.1604 118.654 17.366 118.684 16.5651Z"
              fill="white"/>
        <path d="M168.565 13.5237L165.771 13.6538C165.771 13.5643 165.771 13.4993 165.704 13.4342C165.665 13.2434 165.603 13.0578 165.52 12.8813C165.417 12.5922 165.238 12.3339 165.002 12.1315C164.766 11.9292 164.481 11.7897 164.173 11.7265C163.393 11.526 162.571 11.5486 161.805 11.7916C161.598 11.8617 161.401 11.9573 161.219 12.0762C161.058 12.1735 160.923 12.3083 160.829 12.4686C160.734 12.6288 160.682 12.8094 160.677 12.9941C160.672 13.1788 160.714 13.3619 160.8 13.5267C160.886 13.6915 161.013 13.833 161.169 13.9384C161.338 14.0538 161.521 14.1494 161.713 14.223C162.36 14.4886 163.033 14.6928 163.721 14.833C164.577 15.0239 165.416 15.2795 166.231 15.5974C166.83 15.8258 167.376 16.1687 167.837 16.6057C168.49 17.2666 168.881 18.1309 168.941 19.0454C169.018 19.6815 168.947 20.3263 168.732 20.932C168.525 21.5596 168.164 22.1289 167.68 22.5907C167.196 23.0526 166.604 23.3931 165.955 23.5831C165.315 23.7695 164.655 23.8787 163.989 23.9084C163.509 23.9328 163.029 23.9328 162.549 23.9084C161.624 23.8784 160.719 23.6389 159.906 23.209C158.906 22.6476 158.16 21.7422 157.814 20.6718C157.654 20.2319 157.541 19.7766 157.479 19.3137V19.1104L160.207 18.8421C160.22 18.9484 160.248 19.0524 160.291 19.1511C160.386 19.4636 160.501 19.7705 160.634 20.07C160.8 20.4383 161.057 20.761 161.383 21.0093C161.708 21.2576 162.092 21.4238 162.499 21.4931C163.218 21.6287 163.96 21.6009 164.666 21.4118C165.133 21.2764 165.537 20.9893 165.812 20.5986C165.967 20.4083 166.075 20.1868 166.13 19.9505C166.185 19.7141 166.185 19.4688 166.13 19.2324C166.058 18.9249 165.874 18.6533 165.612 18.468C165.34 18.2707 165.034 18.122 164.708 18.0289L162.483 17.4434C161.679 17.2565 160.899 16.9838 160.157 16.6301C159.681 16.4082 159.257 16.096 158.907 15.7119C158.558 15.3278 158.292 14.8796 158.124 14.3938C157.838 13.5102 157.897 12.5553 158.289 11.711C158.681 10.8667 159.378 10.1921 160.249 9.81546C160.912 9.53473 161.619 9.36429 162.34 9.31127C162.897 9.27141 163.457 9.27141 164.014 9.31127C164.739 9.3555 165.45 9.52628 166.114 9.81546C166.73 10.0866 167.267 10.5031 167.676 11.0271C168.085 11.5511 168.353 12.166 168.456 12.8162C168.456 13.0195 168.456 13.2147 168.523 13.3854L168.565 13.5237Z"
              fill="white"/>
        <path d="M64.1529 17.3945H57.3427C57.0331 17.3945 57.0331 17.3945 57.0331 17.7035V21.1434C57.0331 21.3142 57.0331 21.3386 57.2339 21.3386H64.9895V23.64C64.8305 23.6806 54.5065 23.705 54.2388 23.64C54.2388 23.5586 54.2388 23.4448 54.2388 23.3553V9.7585C54.2277 9.66393 54.2277 9.56845 54.2388 9.47388H64.7134C64.7134 10.2871 64.7134 11.0352 64.7134 11.824H57.3427C57.0331 11.824 57.0331 11.7753 57.0331 12.1249V14.8817C57.0331 15.0118 57.0331 15.0281 57.2088 15.0525H63.9019C64.2365 15.0525 64.2365 15.0525 64.2365 15.3615V17.0774C64.178 17.2238 64.178 17.2888 64.1529 17.3945Z"
              fill="white"/>
        <path d="M155.614 13.3854L152.845 14.0441C152.823 13.9697 152.798 13.8965 152.769 13.8245C152.617 13.2807 152.313 12.7883 151.891 12.4014C151.321 11.8968 150.57 11.6284 149.799 11.6533C149.274 11.6399 148.752 11.7505 148.28 11.9757C147.808 12.2009 147.399 12.5339 147.089 12.9463C146.778 13.3778 146.556 13.8639 146.436 14.3775C146.261 15.1597 146.185 15.96 146.21 16.7602C146.198 17.4796 146.291 18.197 146.486 18.8908C146.638 19.5528 146.981 20.1592 147.474 20.6392C148.038 21.1707 148.788 21.4756 149.573 21.4931C149.955 21.5225 150.338 21.478 150.701 21.3621C151.065 21.2462 151.401 21.0613 151.69 20.8181C152.05 20.5271 152.336 20.1599 152.527 19.7447C152.686 19.4113 152.778 19.0616 152.912 18.7119C152.912 18.6469 152.953 18.5818 152.979 18.4924L155.614 19.3462V19.4113C155.394 20.2921 154.996 21.1215 154.443 21.8509C153.821 22.6773 152.94 23.2852 151.933 23.583C150.625 23.9906 149.222 24.0132 147.9 23.6481C147.075 23.433 146.308 23.0449 145.653 22.511C144.998 21.9772 144.472 21.3106 144.11 20.5579C143.709 19.7762 143.457 18.9304 143.366 18.0614C143.293 17.4297 143.271 16.7935 143.299 16.1584C143.308 15.0039 143.562 13.8635 144.043 12.808C144.443 11.9016 145.072 11.1083 145.872 10.5025C146.672 9.89665 147.618 9.49798 148.62 9.34376C149.716 9.14269 150.845 9.19563 151.916 9.49827C152.75 9.71057 153.514 10.1281 154.134 10.7107C154.754 11.2932 155.209 12.0212 155.455 12.8243C155.455 12.9544 155.539 13.1089 155.589 13.239C155.581 13.2637 155.58 13.2897 155.584 13.315C155.589 13.3404 155.599 13.3644 155.614 13.3854Z"
              fill="white"/>
        <path d="M87.8877 23.6399C87.7957 23.6399 87.7288 23.6399 87.6619 23.6399H85.152C85.137 23.6411 85.1219 23.6392 85.1078 23.6344C85.0936 23.6295 85.0806 23.6219 85.0696 23.612C85.0586 23.6021 85.0498 23.59 85.0438 23.5766C85.0378 23.5633 85.0348 23.5488 85.0348 23.5342V12.1981C85.0426 12.0789 85.0426 11.9594 85.0348 11.8403H80.8517C80.7799 11.0693 80.7799 10.2936 80.8517 9.52264H92.0291C92.0395 9.51762 92.0509 9.51501 92.0625 9.51501C92.0742 9.51501 92.0856 9.51762 92.096 9.52264C92.1504 10.297 92.1504 11.0741 92.096 11.8484H88.1973C87.9045 11.8484 87.9045 11.8484 87.9045 12.133V23.3391C87.8865 23.4383 87.8808 23.5394 87.8877 23.6399Z"
              fill="white"/>
        <path d="M140.973 23.64H138.22C138.178 23.4936 138.153 9.81544 138.22 9.53082C138.354 9.49016 140.73 9.46576 140.989 9.53082C140.998 9.68533 141.023 23.3798 140.973 23.64Z"
              fill="white"/>
    </symbol>
</svg>
