<svg width="29" height="33" viewBox="0 0 29 33" fill="none" xmlns="http://www.w3.org/2000/svg">
    <path fill-rule="evenodd" clip-rule="evenodd"
          d="M24.8393 12.4665H28.2444C28.2375 12.3714 28.2149 12.2781 28.1774 12.19V9.75037C28.1861 9.65873 28.1679 9.56658 28.125 9.48456C28.082 9.40255 28.0161 9.334 27.9348 9.28684C27.5165 9.00222 27.0982 8.71354 26.6799 8.42485C26.2616 8.13616 25.8432 7.84747 25.4249 7.56284L14.4734 0.0813208C14.4514 0.0742035 14.4262 0.0577421 14.4014 0.0414779C14.3694 0.0205762 14.3379 0 14.3144 0C14.2314 0.0801236 14.1558 0.167203 14.0885 0.260227C14.0564 0.223342 14.0274 0.191406 14.0003 0.161658C13.9498 0.106143 13.9062 0.0582425 13.8626 0L13.6618 0.130113L5.74729 5.52169C5.00769 6.02264 4.26808 6.52619 3.52848 7.02974C2.41912 7.78504 1.30976 8.54033 0.200409 9.28684C0.135569 9.32603 0.0827337 9.38141 0.0474159 9.4472C0.012098 9.513 -0.00440887 9.58681 -0.000382883 9.66092V12.1981V12.4177H3.42981C3.44214 12.345 3.44214 12.2708 3.42981 12.1981V11.3361C3.42468 11.2933 3.43218 11.2499 3.45143 11.211C3.47069 11.1721 3.50091 11.1394 3.53858 11.1166C3.58041 11.1003 3.67244 11.0352 3.67244 11.0352C4.85248 10.2211 6.03916 9.41335 7.22829 8.60396C7.92765 8.12794 8.62787 7.65133 9.32808 7.1725C9.8731 6.81004 10.4072 6.44757 10.9413 6.08511C11.3418 5.81327 11.7424 5.54143 12.1475 5.26959L12.3985 5.13948V14.898H15.8287V5.08255C15.9148 5.14654 16.0042 5.20625 16.0964 5.26146L22.0951 9.3275C22.6724 9.72906 23.2611 10.1269 23.8406 10.5185C24.1178 10.7058 24.3929 10.8917 24.6636 11.0759C24.7226 11.1028 24.7714 11.1472 24.803 11.2027C24.8345 11.2582 24.8472 11.322 24.8393 11.3849V12.2469V12.4665ZM3.43013 13.605V13.3203C2.30955 13.2626 1.18642 13.2708 0.0668582 13.3447V23.2415C0.0597341 23.3361 0.0793506 23.4308 0.123587 23.5154C0.167824 23.5999 0.234998 23.6711 0.317848 23.7213L3.89864 26.1609L13.7626 32.9105L13.9466 33.0406C14.0287 32.9655 14.1043 32.8839 14.1725 32.7967C14.206 32.8414 14.2457 32.88 14.2854 32.9187C14.3252 32.9573 14.3649 32.9959 14.3984 33.0406L14.6243 32.8861C16.7326 31.4456 18.8519 30.005 20.9711 28.5645C22.5606 27.4841 24.15 26.4037 25.7348 25.3233C25.9003 25.2069 26.065 25.0906 26.2293 24.9745C26.8459 24.539 27.4564 24.1078 28.0774 23.6969C28.1428 23.6584 28.1962 23.6031 28.2316 23.5371C28.267 23.4712 28.2831 23.397 28.2781 23.3228V13.5643V13.3041H26.0025C25.6264 13.2799 25.2491 13.2799 24.873 13.3041V21.5012C24.873 21.7174 24.8905 21.7933 24.8629 21.8452C24.8365 21.8948 24.7689 21.9225 24.6053 22.0298L18.6067 26.0958C18.1883 26.3805 17.77 26.661 17.3517 26.9416C16.9334 27.2221 16.5151 27.5027 16.0968 27.7873C16.0298 27.893 15.988 27.893 15.8541 27.893V15.9307C15.6031 15.8657 12.608 15.8657 12.4239 15.9307V27.9174C12.3315 27.8714 12.2421 27.8198 12.1562 27.7629C10.3318 26.5424 8.52106 25.3085 6.70647 24.072C5.6919 23.3806 4.67611 22.6884 3.65602 21.9973C3.58254 21.9553 3.5225 21.8942 3.48262 21.821C3.44273 21.7478 3.42456 21.6652 3.43013 21.5825V13.605Z"
          fill="#3B48D0"/>
</svg>
